PathFileType	4	(X/Y/Z)	/Users/mathieubourgeois/Desktop/Analyse/Traitement/Sujet_02/Data/Transformed_Sujet_02_velo_100.trc
DataRate	CameraRate	NumFrames	NumMarkers	Units	OrigDataRate	OrigDataStartFrame	OrigNumFrames
120.000000	120.000000	4	36	mm	120.000000	705	1882
Frame#	Time	RFHD			RANE			STRN			LANI			LKNE			T10			RHUM			RWRB			C7			LFWT			LTOE			RTOE			LWRA			LBWT			RBWT			RFWT			LKNI			RKNI			RKNE			LANE			RANI			LHEE			RHEE			LHUM			LRAD			RRAD			RWRA			LWRB			LFHD			LBHD			RBHD			RSHO			LSHO			CLAV			LCAR			RCAR			
		X1	Y1	Z1	X2	Y2	Z2	X3	Y3	Z3	X4	Y4	Z4	X5	Y5	Z5	X6	Y6	Z6	X7	Y7	Z7	X8	Y8	Z8	X9	Y9	Z9	X10	Y10	Z10	X11	Y11	Z11	X12	Y12	Z12	X13	Y13	Z13	X14	Y14	Z14	X15	Y15	Z15	X16	Y16	Z16	X17	Y17	Z17	X18	Y18	Z18	X19	Y19	Z19	X20	Y20	Z20	X21	Y21	Z21	X22	Y22	Z22	X23	Y23	Z23	X24	Y24	Z24	X25	Y25	Z25	X26	Y26	Z26	X27	Y27	Z27	X28	Y28	Z28	X29	Y29	Z29	X30	Y30	Z30	X31	Y31	Z31	X32	Y32	Z32	X33	Y33	Z33	X34	Y34	Z34	X35	Y35	Z35	X36	Y36	Z36	

706	5.875	62.60206222534178	1469.043212890625	148.2350158691405	-149.9091949462891	515.8052368164062	182.7345123291015	-203.2079467773438	1282.423461914062	34.75934600830067	-348.8179931640625	365.4462890625	-75.72701263427741	-177.0115966796875	755.5191650390625	-140.4001770019532	-358.2301635742188	1520.207763671875	29.92770004272447	-63.98302841186526	1171.547485351562	236.3915863037109	174.757827758789	1027.775390625	156.9322814941406	-134.1241455078125	1569.083129882812	38.34585571289051	-394.0679016113281	1212.948120117188	-106.8193359375001	-201.4514617919922	219.9883728027344	-143.6972198486328	67.41795349121092	493.3572387695312	158.2487182617187	219.6786193847657	1045.4033203125	-165.020263671875	-587.169677734375	1207.345458984375	-56.19367599487319	-592.3607177734375	1215.591430664062	65.1430282592772	-417.7048645019531	1236.299194335938	162.8033599853514	-142.9285736083984	717.4561157226562	-39.55677032470709	-9.918265342712415	938.795166015625	103.3950500488281	-72.11762237548831	960.3379516601562	208.8291931152343	-381.6299133300781	366.11376953125	-163.622772216797	-126.8078689575195	536.6692504882812	94.59455108642574	-453.1501770019531	363.6014404296875	-119.830535888672	-217.9423217773438	469.4940185546875	130.3194580078124	-23.43906211853025	1209.927734375	-185.1692657470704	35.83282089233401	1249.667236328125	-207.2730712890626	-11.33392238616947	1215.318969726562	282.7502441406249	202.8998718261718	1054.843383789062	216.9928436279297	179.5406951904297	1021.697387695312	-106.1191101074219	74.37894439697266	1432.480590820312	-16.86029434204109	-2.297606468200679	1562.910034179688	-34.58180618286142	5.46735811233519	1585.372192382812	123.1649017333983	-114.5316238403321	1511.859497070312	192.950469970703	-90.53225708007811	1513.043212890625	-98.60597991943371	-96.34310150146484	1424.462158203125	23.67321968078603	290.1312561035156	1040.956909179688	-75.93299102783205	293.413330078125	1017.735656738281	139.8869171142578	
707	5.883333333333333	62.15834808349607	1468.914672851562	148.1449127197265	-143.2427978515625	500.4750671386719	182.7851257324218	-203.3369293212891	1282.419555664062	34.65842819213857	-353.4979553222656	378.8123168945312	-75.1909255981446	-169.8700561523437	762.6325073242188	-139.8682708740235	-358.4563903808594	1520.015258789062	29.72834777832018	-63.70541000366214	1171.975952148438	235.8211059570312	174.1669769287109	1027.056396484375	156.9509887695312	-134.3907928466797	1569.065063476562	37.94233322143543	-394.192138671875	1212.91357421875	-106.3709106445314	-209.95458984375	229.2077484130859	-143.6676635742188	74.98517608642577	481.3804931640625	158.0168762207031	219.7969207763672	1045.372680664062	-164.9805297851563	-587.16455078125	1206.972900390625	-56.20149230957045	-592.24072265625	1215.138305664062	65.15489959716783	-417.6672058105469	1235.626586914062	163.3605346679686	-138.5364074707031	724.0474853515625	-38.71525573730474	-13.6197385787964	927.7490844726562	101.590476989746	-75.44612121582034	948.3131713867188	206.9955291748046	-385.8230590820312	380.6033020019531	-163.2683410644532	-120.1305770874024	521.0986938476562	94.07521057128902	-457.3425598144531	380.22216796875	-119.5125122070313	-210.1808166503907	452.6239013671875	130.0853881835937	-23.17481803894041	1210.04296875	-185.0968627929688	36.13675308227542	1249.84716796875	-207.1416168212891	-11.08154582977298	1215.80224609375	282.2622375488281	203.0196990966797	1054.90478515625	216.9156646728515	179.561767578125	1021.601196289062	-106.1315307617188	74.16014862060547	1432.292358398438	-16.96567344665535	-2.321459293365474	1562.782470703125	-34.88717651367197	5.331682682037338	1585.338989257812	122.918487548828	-114.8209686279297	1512.102783203125	192.6317596435546	-90.75850677490233	1513.06494140625	-98.83299255371105	-96.56060791015625	1424.479248046875	23.3612060546874	290.09716796875	1040.982177734375	-75.88775634765628	293.6087036132812	1017.815856933594	139.3023376464843	
708	5.891666666666667	61.72090911865232	1468.819458007812	147.9993286132812	-137.080810546875	484.3291320800781	182.4430389404296	-203.3728637695312	1282.431396484375	34.54111099243153	-356.5838928222656	392.9170227050781	-74.71334075927741	-162.3430938720703	770.2451782226562	-139.4561004638673	-358.6434936523438	1519.791625976562	29.42231178283678	-63.40431213378909	1172.489868164062	235.1730194091796	174.9522705078125	1027.788818359375	156.9737548828125	-134.6101684570312	1569.095336914062	37.43958282470692	-394.2965393066406	1212.823364257812	-105.6815338134767	-217.4929809570312	239.4465637207031	-143.4436798095704	81.52011108398436	468.1543579101562	157.5999145507812	219.9016418457032	1045.39404296875	-164.9035186767578	-587.13818359375	1206.605224609375	-56.08618164062514	-592.0425415039062	1214.689453125	65.29782104492173	-417.518310546875	1234.88330078125	164.0843048095702	-131.84814453125	731.3216552734375	-37.96699905395513	-17.7217140197754	914.288330078125	101.206916809082	-79.39689636230472	935.4496459960938	205.5419769287109	-388.7883911132812	395.8312377929688	-162.7390441894532	-114.7873687744141	505.6012573242188	93.94566345214839	-459.8485412597656	397.548583984375	-119.7316207885743	-203.4084014892578	435.4827575683594	129.9824829101562	-22.9172782897949	1210.202880859375	-185.0961303710938	36.41983032226565	1250.041259765625	-207.0382232666016	-10.86604118347171	1216.331665039062	281.6856384277343	203.1384735107422	1054.953857421875	216.8825988769531	179.5708465576172	1021.546081542969	-106.1296157836914	73.92375183105469	1432.108520507812	-17.12667465209969	-2.270458698272701	1562.651489257812	-35.228370666504	5.253835678100571	1585.3603515625	122.5504989624022	-115.0609512329102	1512.373046875	192.2044830322265	-90.99100494384764	1513.136474609375	-99.18650054931652	-96.70962524414062	1424.535766601562	22.99887275695791	290.0706481933594	1041.0380859375	-75.82194519042972	293.6893920898438	1017.772521972656	139.309326171875	
709	5.9	59.52886962890623	1468.499633789062	148.4014129638671	-131.935531616211	467.8961181640625	182.1636810302734	-203.3102569580078	1282.482055664062	34.37503051757802	-360.5367431640625	407.9211120605469	-74.38290405273445	-154.6148376464843	778.5382080078125	-138.9993743896485	-358.7474060058594	1519.548461914062	29.00628280639635	-63.10978317260745	1173.024536132812	234.4095916748046	174.4002838134765	1027.016235351562	157.063003540039	-134.8186340332031	1569.11181640625	36.87584304809559	-394.3271484375	1212.69921875	-104.9933166503907	-224.8189544677734	249.9960327148438	-142.8776245117188	87.14123535156249	453.5419006347656	156.9924774169922	220.0142211914063	1045.41796875	-164.7827911376953	-587.10595703125	1206.247436523438	-55.89539337158217	-591.787353515625	1214.324462890625	65.55084228515611	-417.2999877929688	1234.104370117188	164.8956604003905	-124.6187515258789	739.325927734375	-37.26137542724615	-22.54785156250001	901.19482421875	100.581428527832	-83.98358917236331	921.9326782226562	204.2369079589843	-390.8635559082031	411.5015563964844	-162.1949310302735	-110.0596313476563	489.3263549804688	93.77577209472652	-461.8578186035156	415.1596374511719	-119.2745819091798	-197.8757934570313	418.3388671875	130.1466369628906	-22.65905952453611	1210.4228515625	-185.1154174804688	36.66370391845706	1250.232421875	-206.9590454101563	-10.65133953094486	1216.861083984375	281.1206665039062	203.255859375	1054.931396484375	216.9569244384765	179.5735778808594	1021.525634765625	-106.0600128173828	71.77259826660156	1431.314208984375	-16.2156352996827	-2.296995639801021	1562.57177734375	-35.70838165283212	5.207535266876206	1585.42626953125	122.0388031005858	-113.9627456665039	1511.955688476562	191.5907592773437	-91.30979919433592	1513.248413085938	-99.58921051025402	-96.78611755371094	1424.617065429688	22.6004695892333	290.0556640625	1041.08837890625	-75.70522308349612	293.7847900390625	1017.729248046875	139.3839874267578	
